<svg width="45" height="45" viewBox="0 0 45 45" fill="none" xmlns="http://www.w3.org/2000/svg">
<path d="M36.9697 38.0303C37.2626 38.3232 37.7374 38.3232 38.0303 38.0303C38.3232 37.7374 38.3232 37.2626 38.0303 36.9697L36.9697 38.0303ZM33 19.6875C33 27.0398 27.0398 33 19.6875 33V34.5C27.8682 34.5 34.5 27.8682 34.5 19.6875H33ZM19.6875 33C12.3352 33 6.375 27.0398 6.375 19.6875H4.875C4.875 27.8682 11.5068 34.5 19.6875 34.5V33ZM6.375 19.6875C6.375 12.3352 12.3352 6.375 19.6875 6.375V4.875C11.5068 4.875 4.875 11.5068 4.875 19.6875H6.375ZM19.6875 6.375C27.0398 6.375 33 12.3352 33 19.6875H34.5C34.5 11.5068 27.8682 4.875 19.6875 4.875V6.375ZM38.0303 36.9697L30.1786 29.118L29.118 30.1786L36.9697 38.0303L38.0303 36.9697Z" fill="white"/>
</svg>
